# xmcd
#
# Track frame offsets: 
#        150
#        10040
#        22978
#        35470
#        47883
#        62153
#        77923
#        95993
#        109693
#        124058
#        136773
#        151068
#        163346
#        176656
#        187936
#        205196
#        216888
#        230606
#        243526
#        255286
#        270233
#        281023
#        295658
#        307028
#        321146
#
# Disc length: 4371 seconds
#
# Revision: 0
# Processed by: cddbd v1.5.1PL0 Copyright (c) Steve Scherf et al.
# Submitted via: ExactAudioCopy v0.95a5
#
DISCID=5e111119
DTITLE=Otis Redding - The definitive Otis Redding vol 2
DYEAR=1900
DGENRE=Soul
TTITLE0=Respect
TTITLE1=You Don't Miss Your Water
TTITLE2=(I Can't Get No) Satisfaction
TTITLE3=I Can't Turn You Loose
TTITLE4=Cupid
TTITLE5=Just One More Day
TTITLE6=Cigarettes and Coffee
TTITLE7=Chain Gain
TTITLE8=My Lover's Prayer
TTITLE9=It's Growing
TTITLE10=I'm Coming Home
TTITLE11=Fa-Fa-Fa-Fa-Fa (Sad Song)
TTITLE12=I'm Sick Ya'll
TTITLE13=Sweet Lorene
TTITLE14=Try a Little Tenderness
TTITLE15=Day Tripper
TTITLE16=Tramp
TTITLE17=Knock On Wood
TTITLE18=Lovey Dovey
TTITLE19=New Year's Resolution
TTITLE20=You Left the Water Running
TTITLE21=Trick Or Treat
TTITLE22=Merry Christmas, Baby
TTITLE23=White Christmas
TTITLE24=Things Go Better With Coke (A Man And A Woman)
EXTD=
EXTT0=
EXTT1=
EXTT2=
EXTT3=
EXTT4=
EXTT5=
EXTT6=
EXTT7=
EXTT8=
EXTT9=
EXTT10=
EXTT11=
EXTT12=
EXTT13=
EXTT14=
EXTT15=
EXTT16=
EXTT17=
EXTT18=
EXTT19=
EXTT20=
EXTT21=
EXTT22=
EXTT23=
EXTT24=
PLAYORDER=
